HIERARCHY
ROOT Hips
{
 OFFSET 0.000000 0.000000 0.000000
 CHANNELS 6 Xposition Yposition Zposition Yrotation Xrotation Zrotation
 JOINT Chest
 {
  OFFSET 0.000000 9.857222 0.000240
  CHANNELS 3 Yrotation Xrotation Zrotation
  JOINT Chest2
  {
   OFFSET 0.000000 10.876940 -0.000436
   CHANNELS 3 Yrotation Xrotation Zrotation
   JOINT Chest3
   {
    OFFSET 0.000000 9.827798 0.000000
    CHANNELS 3 Yrotation Xrotation Zrotation
    JOINT Chest4
    {
     OFFSET 0.000000 9.827798 0.000000
     CHANNELS 3 Yrotation Xrotation Zrotation
     JOINT Neck
     {
      OFFSET 0.000000 13.831992 0.000000
      CHANNELS 3 Yrotation Xrotation Zrotation
      JOINT Head
      {
       OFFSET 0.000000 9.147643 -0.001036
       CHANNELS 3 Yrotation Xrotation Zrotation
       End Site
       {
        OFFSET 0.000000 17.515799 -0.000541
       }
      }
     }
     JOINT RightCollar
     {
      OFFSET -3.001579 7.717577 0.000000
      CHANNELS 3 Yrotation Xrotation Zrotation
      JOINT RightShoulder
      {
       OFFSET -14.002642 0.000000 0.000000
       CHANNELS 3 Yrotation Xrotation Zrotation
       JOINT RightElbow
       {
        OFFSET -30.053852 0.000000 0.000000
        CHANNELS 3 Yrotation Xrotation Zrotation
        JOINT RightWrist
        {
         OFFSET -24.564923 0.000000 -0.000000
         CHANNELS 3 Yrotation Xrotation Zrotation
         End Site
         {
          OFFSET -18.334355 0.000000 0.000000
         }
        }
       }
      }
     }
     JOINT LeftCollar
     {
      OFFSET 3.001579 7.717577 0.000000
      CHANNELS 3 Yrotation Xrotation Zrotation
      JOINT LeftShoulder
      {
       OFFSET 14.002642 0.000000 0.000000
       CHANNELS 3 Yrotation Xrotation Zrotation
       JOINT LeftElbow
       {
        OFFSET 30.053852 0.000000 0.000000
        CHANNELS 3 Yrotation Xrotation Zrotation
        JOINT LeftWrist
        {
         OFFSET 24.564923 0.000000 -0.000000
         CHANNELS 3 Yrotation Xrotation Zrotation
         End Site
         {
          OFFSET 18.334355 0.000000 0.000000
         }
        }
       }
      }
     }
    }
   }
  }
 }
 JOINT RightHip
 {
  OFFSET -8.003235 -0.001175 -0.000120
  CHANNELS 3 Yrotation Xrotation Zrotation
  JOINT RightKnee
  {
   OFFSET 0.000000 -41.759727 0.000113
   CHANNELS 3 Yrotation Xrotation Zrotation
   JOINT RightAnkle
   {
    OFFSET 0.000000 -40.728748 0.000159
    CHANNELS 3 Yrotation Xrotation Zrotation
    JOINT RightToe
    {
     OFFSET 0.000000 -6.515296 14.732841
     CHANNELS 3 Yrotation Xrotation Zrotation
     End Site
     {
      OFFSET 0.000000 -1.502839 6.412115
     }
    }
   }
  }
 }
 JOINT LeftHip
 {
  OFFSET 8.003235 -0.001175 -0.000120
  CHANNELS 3 Yrotation Xrotation Zrotation
  JOINT LeftKnee
  {
   OFFSET 0.000000 -41.759727 0.000113
   CHANNELS 3 Yrotation Xrotation Zrotation
   JOINT LeftAnkle
   {
    OFFSET 0.000000 -40.728748 0.000159
    CHANNELS 3 Yrotation Xrotation Zrotation
    JOINT LeftToe
    {
     OFFSET 0.000000 -6.515296 14.732841
     CHANNELS 3 Yrotation Xrotation Zrotation
     End Site
     {
      OFFSET 0.000000 -1.502839 6.412115
     }
    }
   }
  }
 }
}
MOTION
Frames: 8
Frame Time: 0.016667
0.000000 88.822259 0.000000 0.000000 -5.826342 0.000000 0.000000 11.116423 0.000000 0.000000 -5.290081 0.000000 0.000000 0.000000 0.000000 0.000000 0.000000 0.000000 0.000000 12.665069 0.000000 0.000000 0.575450 0.000000 0.000000 0.000000 0.000000 0.000000 0.000000 0.000000 2.337306 0.000000 0.000000 -2.337306 0.000000 0.000000 0.000000 0.000000 0.000000 0.000000 0.000000 0.000000 -2.337306 0.000000 0.000000 2.337306 0.000000 0.000000 0.000000 8.578828 0.000000 0.000000 1.905768 0.000000 0.000000 -4.658254 0.000000 0.000000 0.000000 0.000000 0.000000 8.578828 0.000000 0.000000 1.905768 0.000000 0.000000 -4.658254 0.000000 0.000000 0.000000 0.000000
4.925040 90.281081 15.115437 -34.949635 -9.403078 1.572277 3.042726 4.044134 -0.019429 1.202285 1.797772 0.000634 1.202285 1.797772 0.000634 0.901638 1.348337 -0.003062 -5.778903 22.694391 2.698122 -11.141868 6.409626 6.406057 2.777211 12.412770 9.921366 61.156435 13.440362 75.066729 52.117725 -28.444432 -27.589757 2.373182 -3.353051 -6.538084 -16.703420 15.304242 -10.975468 -40.372997 4.297280 -68.123685 -33.142070 -3.623927 1.753461 16.459663 -6.428663 -0.601719 0.207962 8.322862 -1.883459 -1.594316 11.042391 -1.725187 -0.141041 -9.492928 0.943227 0.225286 -0.435699 0.372999 9.400937 5.721216 1.788016 -0.806429 16.856449 -1.240770 -0.646274 -11.085077 0.323064 -0.219535 0.074328 -0.006181
4.897543 90.310366 15.249395 -34.966978 -9.276607 1.662448 3.050023 3.963139 -0.090316 1.207931 1.766886 -0.031818 1.207931 1.766886 -0.031818 0.905968 1.325107 -0.027355 -5.799336 22.719630 2.691910 -11.175218 6.457692 6.397881 2.815323 12.364098 9.896519 61.346535 13.422412 75.405447 52.144089 -28.307928 -27.618437 2.400552 -3.325523 -6.403383 -16.650677 15.232412 -10.956967 -40.436290 4.301831 -68.234724 -32.867147 -3.600993 1.856897 16.412676 -6.462735 -0.604458 0.264894 8.332233 -2.010998 -1.640868 10.946546 -1.712697 -0.096910 -9.465923 0.905560 0.218442 -0.462836 0.371404 9.050753 5.921799 1.625915 -0.558935 16.420132 -1.248080 -0.584687 -10.931999 0.269316 -0.196721 0.082250 0.024859
4.853592 90.333995 15.369850 -34.979368 -9.156972 1.741081 3.057127 3.889339 -0.154406 1.212389 1.734879 -0.064897 1.212389 1.734879 -0.064897 0.909407 1.301036 -0.052112 -5.818957 22.745083 2.679645 -11.205496 6.505379 6.378583 2.864157 12.293703 9.886443 61.422157 13.408509 75.741243 52.115109 -28.094941 -27.550545 2.406063 -3.300262 -6.261530 -16.577539 15.145767 -10.919604 -40.400652 4.333571 -68.318636 -32.694399 -3.542073 1.884545 16.365558 -6.505499 -0.640173 0.345069 8.380698 -2.097649 -1.815903 10.753344 -1.692560 0.006171 -9.411305 0.845646 0.201052 -0.453563 0.351266 8.864531 6.165940 1.474058 -0.170576 15.934329 -1.158647 -0.749806 -10.798289 0.204839 -0.157295 0.114846 0.055454
4.801703 90.353318 15.480258 -34.997865 -9.061277 1.821094 3.066114 3.829564 -0.224882 1.216627 1.706889 -0.095222 1.216627 1.706889 -0.095222 0.912669 1.279983 -0.074811 -5.832465 22.763530 2.661259 -11.223660 6.538778 6.347338 2.919342 12.180759 9.894638 61.368511 13.415019 76.078422 52.070298 -27.830802 -27.407057 2.412446 -3.286164 -6.155981 -16.481143 15.080300 -10.872834 -40.328177 4.398340 -68.378667 -32.670289 -3.524117 1.878073 16.312524 -6.568380 -0.674151 0.428975 8.483172 -2.212744 -1.894630 10.524260 -1.616964 0.010198 -9.361043 0.795685 0.189049 -0.432022 0.320705 8.909866 6.453515 1.400226 -0.163588 15.367149 -1.173853 -0.773026 -10.639081 0.164436 -0.132891 0.167750 0.070099
4.742122 90.368473 15.591717 -35.020213 -8.964551 1.891916 3.072857 3.773387 -0.294836 1.222245 1.678200 -0.121984 1.222245 1.678200 -0.121984 0.916954 1.258412 -0.094839 -5.838367 22.769762 2.638602 -11.227880 6.548314 6.307571 2.992006 12.033697 9.930222 61.192721 13.438761 76.396195 52.014964 -27.544982 -27.198869 2.437417 -3.279935 -6.099151 -16.402464 14.980241 -10.849195 -40.197472 4.498218 -68.497660 -32.749530 -3.524334 1.867404 16.272054 -6.609297 -0.653616 0.460240 8.593754 -2.334294 -1.890672 10.268669 -1.501541 0.017205 -9.311196 0.735983 0.165740 -0.398349 0.277141 9.136478 6.755053 1.379482 -0.442104 14.777934 -1.273491 -0.694333 -10.486135 0.166231 -0.107306 0.220002 0.076883
4.678793 90.376545 15.701786 -35.054205 -8.818016 1.944813 3.081336 3.704410 -0.356303 1.227256 1.642684 -0.144338 1.227256 1.642684 -0.144338 0.920767 1.231729 -0.111546 -5.830742 22.759350 2.612956 -11.208134 6.525352 6.260458 3.057068 11.864896 9.975681 60.981801 13.476974 76.689943 51.934268 -27.229880 -26.965690 2.483816 -3.281284 -6.010947 -16.322305 14.849238 -10.831373 -39.956395 4.586475 -68.662858 -32.872350 -3.324734 1.836321 16.251762 -6.540164 -0.676050 0.560075 8.659184 -2.434984 -1.931859 10.020234 -1.379826 0.018401 -9.284052 0.683477 0.147348 -0.356864 0.235829 9.432233 6.977015 1.395817 -0.821406 14.237802 -1.398568 -0.585433 -10.362715 0.183297 -0.089737 0.271852 0.072865
4.590334 90.376605 15.801600 -35.091982 -8.621187 1.979602 3.085023 3.625632 -0.401631 1.230108 1.601252 -0.163010 1.230108 1.601252 -0.163010 0.922948 1.200616 -0.125474 -5.812869 22.730080 2.587735 -11.171363 6.466528 6.213170 3.081353 11.710777 10.014271 60.767473 13.518513 76.941813 51.836178 -26.880765 -26.626137 2.534837 -3.278761 -5.912419 -16.247136 14.728894 -10.819692 -39.678994 4.708849 -68.790721 -33.052034 -2.839513 1.763856 16.244808 -6.517339 -0.775037 0.705787 8.663087 -2.476606 -2.013296 9.800335 -1.284093 0.015946 -9.287930 0.621577 0.131624 -0.307441 0.201168 9.757766 7.112499 1.467164 -1.071160 13.776851 -1.538030 -0.629737 -10.281965 0.219689 -0.064967 0.319263 0.066216
